<svg xmlns="http://www.w3.org/2000/svg" viewBox="0 0 100 100" fill="none">
  <!-- Corpo/tronco azul -->
  <path d="M40 58 C40 52, 43 48, 50 48 C57 48, 60 52, 60 58 L62 88 L38 88 Z" fill="#1a3a7a"/>
  <!-- Braço esquerdo (relaxado) -->
  <path d="M40 55 C36 58, 30 65, 28 72" stroke="#1a3a7a" stroke-width="6" stroke-linecap="round"/>
  <!-- Braço direito levantado -->
  <path d="M60 55 C62 50, 62 40, 60 28" stroke="#1a3a7a" stroke-width="6" stroke-linecap="round"/>
  <!-- Punho -->
  <circle cx="60" cy="25" r="5" fill="#1a3a7a"/>
  <!-- Linhas de brilho acima do punho -->
  <line x1="60" y1="12" x2="60" y2="17" stroke="#1a3a7a" stroke-width="2.5" stroke-linecap="round"/>
  <line x1="52" y1="14" x2="54" y2="18" stroke="#1a3a7a" stroke-width="2.5" stroke-linecap="round"/>
  <line x1="68" y1="14" x2="66" y2="18" stroke="#1a3a7a" stroke-width="2.5" stroke-linecap="round"/>
  <!-- Cabeça laranja -->
  <circle cx="50" cy="40" r="11" fill="#e86830"/>
  <!-- Cachecol vermelho esvoaçante -->
  <path d="M39 44 C34 48, 28 56, 24 68 C26 64, 30 55, 36 50 L39 47 Z" fill="#d42b2b"/>
  <path d="M36 48 C30 54, 22 62, 20 72 C22 66, 28 58, 34 52 Z" fill="#d42b2b" opacity="0.7"/>
  <!-- Pernas -->
  <rect x="42" y="82" width="7" height="12" rx="2" fill="#1a3a7a"/>
  <rect x="52" y="82" width="7" height="12" rx="2" fill="#1a3a7a"/>
</svg>
